<svg xmlns="http://www.w3.org/2000/svg" viewBox="0 0 45.43 62.32"><defs><style>.cls-1{fill-rule:evenodd;}</style></defs><title>Ресурс 2</title><g id="Шар_2" data-name="Шар 2"><g id="Layer_1" data-name="Layer 1"><path class="cls-1" d="M45.43,59c-.09-2.4-.14-4.79-.22-7.19-.12-3.71-.16-7.42-.4-11.12a9.62,9.62,0,0,0-8.14-8.91,47.15,47.15,0,0,0-9-.17,10,10,0,0,0-9,9.13c-.27,6.13-.42,12.27-.59,18.41a2.87,2.87,0,0,0,3.13,3.18h21A2.93,2.93,0,0,0,45.43,59Z"/><path class="cls-1" d="M20.57,7.91c.47-3.52,3.35-4.64,6.14-2.44a9.9,9.9,0,0,1,3.81,9.33c-.29,2.62-2.17,4.08-4.29,3.41a8.15,8.15,0,0,1-2.71-1.72c-1.22-1.07-1.17-1.13-2.68-.49a4.25,4.25,0,0,0-.37.23,10.85,10.85,0,0,0,4.47,4,5.23,5.23,0,0,0,5.9-.74c2-1.68,4.1-3.27,6.14-4.91a5.28,5.28,0,0,0,2.08-4.24,10.92,10.92,0,0,0-4.52-9.17,5.29,5.29,0,0,0-4.7-1C27.48.76,25.11,1.27,22.79,2a6.13,6.13,0,0,0-2.53,1.4c-1.87,1.85-2.1,4.26-1.94,6.82C19.5,9.77,20.36,9.43,20.57,7.91Z"/><path class="cls-1" d="M26.93,12.1c.82-.33,1.56-.87,1.47-1.8a3.26,3.26,0,0,0-.91-1.86c-.66-.65-1.54-.38-2.33,0C20,10.87,14.83,13.29,9.67,15.76A19.74,19.74,0,0,0,5.6,18c-2.74,2.25-3,5.45-3,8.76,2,.24,2,.24,2.45-1.39,0-.09.08-.18.1-.27A8.32,8.32,0,0,1,10.43,19c2.82-1.12,5.56-2.42,8.35-3.6S24.22,13.21,26.93,12.1Z"/><path class="cls-1" d="M3.74,29.59c-.76.83-1.51,1.69-2.3,2.51A4.87,4.87,0,0,0,0,36a4.18,4.18,0,0,0,2.71,3.73,3.55,3.55,0,0,0,3.79-1.17,4.7,4.7,0,0,0,0-5.77C5.67,31.68,4.67,30.65,3.74,29.59Z"/><path class="cls-1" d="M28,30.38h7.55V27.61H28Z"/><path class="cls-1" d="M41.65,5.11a1.9,1.9,0,0,0,.72-2.21A2,2,0,0,0,40.5,1.39a3.8,3.8,0,0,0-3.18,1.26L39.22,6.5A24.47,24.47,0,0,0,41.65,5.11Z"/><path class="cls-1" d="M33.74,24.54H29.62c-1.59,0-2,.54-1.56,2.15H35.5C35.77,24.86,35.5,24.54,33.74,24.54Z"/></g></g></svg>