<svg xmlns="http://www.w3.org/2000/svg" width="24" height="20" viewBox="0 0 24 20">
  <defs>
    <style>
      .cls-1 {
        fill: #fff;
        fill-rule: evenodd;
      }
    </style>
  </defs>
  <path id="Rounded_Rectangle_1_copy_5" data-name="Rounded Rectangle 1 copy 5" class="cls-1" d="M1086.53,87h20.94c0.84,0,1.53.269,1.53,0.6v2.8c0,0.331-.69.6-1.53,0.6h-20.94c-0.84,0-1.53-.269-1.53-0.6V87.6C1085,87.268,1085.69,87,1086.53,87Zm0-8h20.94c0.84,0,1.53.269,1.53,0.6v2.8c0,0.331-.69.6-1.53,0.6h-20.94c-0.84,0-1.53-.269-1.53-0.6V79.6C1085,79.268,1085.69,79,1086.53,79Zm0-8h20.94c0.84,0,1.53.269,1.53,0.6v2.8c0,0.331-.69.6-1.53,0.6h-20.94c-0.84,0-1.53-.269-1.53-0.6V71.6C1085,71.268,1085.69,71,1086.53,71Z" transform="translate(-1085 -71)"/>
</svg>
