<svg xmlns="http://www.w3.org/2000/svg" viewBox="0 0 61.37 46.39"><defs><style>.cls-1{fill-rule:evenodd;}</style></defs><title>Ресурс 3</title><g id="Шар_2" data-name="Шар 2"><g id="Layer_1" data-name="Layer 1"><path class="cls-1" d="M35.4,19.45V14.11H4.32v5.34a1.67,1.67,0,0,0-2,1A20,20,0,0,0,8.17,46a2.27,2.27,0,0,0,1.22.37q10.51,0,21,0a2.34,2.34,0,0,0,1.28-.43,19.8,19.8,0,0,0,6.14-24.58C37.37,20.31,37,19.09,35.4,19.45ZM18.17,44.12c-.27,0-.51.07-.75.07-2.46,0-4.93,0-7.39,0a2.11,2.11,0,0,1-1.2-.4A17.79,17.79,0,0,1,3.78,22.45a1.26,1.26,0,0,1,1.34-.87c4,0,8.08,0,12.12,0h.93Z"/><path class="cls-1" d="M61.2,35.77a37.73,37.73,0,0,0-1.55-4.64c-2.25-6.11-4.47-12.23-6.8-18.3a7.18,7.18,0,0,0-8-4.63,64.63,64.63,0,0,0-7.21,2.25l13.26,36c2.21-.85,4.35-1.52,6.36-2.47A7.39,7.39,0,0,0,61.2,35.77Z"/><path class="cls-1" d="M35.39,8.71a11.5,11.5,0,0,0-1.82-6A6.4,6.4,0,0,0,29.23,0c.52,2.53,0,3.6-2.26,4.57-1.32.56-2.75.88-4.11,1.34a58.34,58.34,0,0,0-5.57,2,4.06,4.06,0,0,0-2.46,3.87H35.41C35.41,10.72,35.47,9.71,35.39,8.71Z"/></g></g></svg>