<svg xmlns="http://www.w3.org/2000/svg" viewBox="0 0 75.49 58"><defs><style>.cls-1{fill-rule:evenodd;}</style></defs><title>Ресурс 1</title><g id="Шар_2" data-name="Шар 2"><g id="Layer_1" data-name="Layer 1"><path class="cls-1" d="M67,43.28c.76-.44,1.48-1,2.3-1.51C63.93,33.58,57.12,27.3,47.87,24.07c-7.8-2.73-15.8-3.84-24.09-2.12.07.41.1.67.17.93s.17.57.23.74c16-.48,30.22,3.26,41.09,16-.33.17-.55.3-.78.41a55.39,55.39,0,0,1-16.63,4.4,51.6,51.6,0,0,1-12.75.18,44.72,44.72,0,0,1-17.47-6.19c-2.9-1.76-5.64-3.78-8.58-5.77L6.63,35.36l1.79,1.16L5.63,39.71,3.3,42.38c2.57-.3,4.89-1.89,7.12-3.74C9.51,42.11,7.27,44.72,5,47.42c4.07-.66,6.7-3.2,9.14-6.08-.39,4.6-2.48,8.41-5,12.24,4.8-1.59,7.43-5.14,9.73-9.08.19,3.92-1.28,7.32-3,10.81,3.95-1.78,5.77-5.12,7.37-8.66.16,3.61-1,6.85-2.32,10.1a17.63,17.63,0,0,0,2.75-2c2-1.77,2.85-4.26,3.89-6.66l.59.17.63.23c.16,3-.9,5.71-1.93,8.59,3.21-1.78,4.66-4.58,5.65-7.73l2.17.37-1,7.76.45.13L37.11,50l1.05,0c1.18,6.18,1.44,6.94,2.7,7.93V50.22l.94-.11c1.62-.15,1.61-.15,1.8,1.41a10.35,10.35,0,0,0,2.82,6.17c-.28-2.82-.49-5.39.29-7.89l2.8-.34c1.3,5.05,1.56,5.68,2.92,7-.1-.87-.21-1.66-.29-2.46S52,52.35,52,51.54c0-2.54,0-2.54,2.41-3.11a1.51,1.51,0,0,1,.32,0c.66,2,1.22,4.19,3,5.75-.34-1.83-.65-3.6-1-5.37-.13-.68,0-1.12.79-1.25a10.37,10.37,0,0,0,1.18-.34c.72,1.65,1.25,3.31,2.85,4.43-.37-1.28-.73-2.42-1-3.57-.38-1.53-.34-1.57,1.2-2l2.56,3.5.27-.17-1.41-4L65,44.47l2.29,3.24.26-.17c-.34-1-.66-2-1-2.92A1,1,0,0,1,67,43.28Z"/><path class="cls-1" d="M74.61,11.35a13,13,0,0,0-2.35-2.69A31.44,31.44,0,0,0,60.38,2.55,64.13,64.13,0,0,0,31.89.85,60.75,60.75,0,0,0,5.21,11.43C3.38,12.73,1.73,14.3,0,15.75l.29.32a42.76,42.76,0,0,1,11.58-5.48A49.49,49.49,0,0,1,33.73,8.32,79.61,79.61,0,0,1,48.61,12.2c5.55,1.87,11.1,3.78,16.69,5.54a12.19,12.19,0,0,0,6.42.41C75.21,17.36,76.53,14.34,74.61,11.35Z"/></g></g></svg>