<svg xmlns="http://www.w3.org/2000/svg" viewBox="0 0 12.14 26.28"><defs><style>.cls-1{fill:#999;fill-rule:evenodd;}</style></defs><title>Ресурс 2</title><g id="Шар_2" data-name="Шар 2"><g id="Layer_1" data-name="Layer 1"><path class="cls-1" d="M2.67,13.16a3,3,0,0,1,0,.78V26.28H8.06c0-3.25,0-6.58,0-9.85,0,0,0-3.16,0-3.23a.12.12,0,0,1,0-.05s3.41,0,3.52,0l.06,0,.47-4.51H8.07c0-.66,0-1.35,0-2s0-1.36.35-1.7l3.69-.37V0c-.7,0-1.53,0-2.24,0S8.38,0,7.65,0a5.59,5.59,0,0,0-3.32,1.2C3.15,3.13,2.7,1.51,2.69,8.63H0v4.53Z"/></g></g></svg>