<svg xmlns="http://www.w3.org/2000/svg" viewBox="0 0 26.95 24.06"><defs><style>.cls-1{fill:#999;fill-rule:evenodd;}</style></defs><title>Ресурс 4</title><g id="Шар_2" data-name="Шар 2"><g id="Layer_1" data-name="Layer 1"><path class="cls-1" d="M12.86,13.92c-.64-.58-1.33-1.11-2-1.7a1.23,1.23,0,0,1,0-2.06l.12-.11c.42-.37.85-.72,1.25-1.1a4.34,4.34,0,0,0,1.41-2.54,9.31,9.31,0,0,0-.05-2.87A2.82,2.82,0,0,0,12,1.29a1.53,1.53,0,0,1-.19-.13A1.1,1.1,0,0,1,12.13,1L13.3.78c.43-.09.86-.19,1.28-.32A.43.43,0,0,0,14.91,0H8.68A9.14,9.14,0,0,0,4.31,1.07,5.11,5.11,0,0,0,1.73,4a6.34,6.34,0,0,0-.11,3.57A4.08,4.08,0,0,0,3,9.79,5.38,5.38,0,0,0,6.07,11c.42,0,.85,0,1.3,0,0,.45,0,.84,0,1.23a.84.84,0,0,0,.37.79,1.26,1.26,0,0,1,.52,1.06l-.17,0c-.73.05-1.46.07-2.19.16a9.78,9.78,0,0,0-3.84,1.24A4.31,4.31,0,0,0,.52,21.26a4.91,4.91,0,0,0,3,2.27A11.77,11.77,0,0,0,9,23.9a8.88,8.88,0,0,0,3.64-1.34,5.45,5.45,0,0,0,2-6.29A6.26,6.26,0,0,0,12.86,13.92ZM6.44,9.14a5.26,5.26,0,0,1-2-3.38,4.8,4.8,0,0,1,.28-2.93A2.49,2.49,0,0,1,6.83,1.18a2.74,2.74,0,0,1,2.1.77,5.62,5.62,0,0,1,1.85,4.23,4.73,4.73,0,0,1-.39,1.91A2.49,2.49,0,0,1,6.44,9.14Zm5.29,11.74A5.87,5.87,0,0,1,7.8,22.42H7.57a5.59,5.59,0,0,1-3.65-1.18,3,3,0,0,1-.13-4.65,5.77,5.77,0,0,1,3.34-1.5,6.17,6.17,0,0,1,3.56.55,3.55,3.55,0,0,1,2,2.06A2.92,2.92,0,0,1,11.73,20.88Z"/><path class="cls-1" d="M26.79,4.67H22.42c-.24,0-.3-.07-.29-.3,0-1.27,0-2.54,0-3.81,0-.12,0-.24,0-.37h-.9V4.67H16.54V5.83h4.4c.23,0,.3.07.3.3,0,1.24,0,2.49,0,3.73v.63h.91v-.31q0-1.93,0-3.87c0-.54-.07-.49.5-.49h4.31V4.65Z"/></g></g></svg>