<svg xmlns="http://www.w3.org/2000/svg" viewBox="0 0 24.48 24.46"><defs><style>.cls-1{fill:#999;fill-rule:evenodd;}</style></defs><title>Ресурс 3</title><g id="Шар_2" data-name="Шар 2"><g id="Layer_1" data-name="Layer 1"><path class="cls-1" d="M21.4,0H3.11A2.84,2.84,0,0,0,0,3q0,9.21,0,18.42a2.8,2.8,0,0,0,3,3q9.25,0,18.49,0a2.83,2.83,0,0,0,3-3.05q0-9.18,0-18.36A2.84,2.84,0,0,0,21.4,0ZM17.93,2.89c.9,0,1.81,0,2.71,0a.86.86,0,0,1,.94.93q0,1.35,0,2.71a.89.89,0,0,1-1,1H17.94a.86.86,0,0,1-1-.91c0-.93,0-1.85,0-2.78A.84.84,0,0,1,17.93,2.89ZM12.2,7.56a4.66,4.66,0,1,1-4.59,4.66A4.66,4.66,0,0,1,12.2,7.56Zm9.39,3.51q0,4.62,0,9.25c0,1-.26,1.25-1.18,1.25H4.09c-.87,0-1.19-.3-1.19-1.12,0-3.22,0-6.44,0-9.66a3.3,3.3,0,0,1,0-.36h2a7.55,7.55,0,0,0,2.34,7.41,7.25,7.25,0,0,0,5.56,1.92,7.61,7.61,0,0,0,6.82-9.34h2Z"/></g></g></svg>