<svg xmlns="http://www.w3.org/2000/svg" viewBox="0 0 72.84 72.63"><defs><style>.cls-1{fill-rule:evenodd;}</style></defs><title>Ресурс 4</title><g id="Шар_2" data-name="Шар 2"><g id="Layer_1" data-name="Layer 1"><path class="cls-1" d="M72.36,51.59c-2.91-.47-5.66-1-8.43-1.32a28.33,28.33,0,0,0-5.06.07c-1,.07-1.47.76-1.47,1.85a12.69,12.69,0,0,0,2.85,7.74,3,3,0,0,1,.64,1.18c-.41-.25-.8-.51-1.22-.73-1.92-1-3.79-2.1-5.78-2.92s-3.23-.21-3.77,1.86a12.67,12.67,0,0,0-.46,4.39c.32,3,.93,6,1.41,8.92-1-1.5-2.07-3.18-3.25-4.74A50.63,50.63,0,0,0,43.74,63c-1.75-1.8-3.18-1.64-4.79.32a13.83,13.83,0,0,0-2.46,6.21c-.16.79-.24,1.59-.38,2.5-.39-1.63-.65-3.2-1.16-4.69a13.56,13.56,0,0,0-1.73-3.5c-1.27-1.77-2.7-2.13-4.52-.9a20.69,20.69,0,0,0-4.28,3.91,60.24,60.24,0,0,0-3.65,5.41c.41-2.45.92-5,1.24-7.51a30.11,30.11,0,0,0,.15-4.95c-.07-1.64-1-2.64-2.63-2.44a19.14,19.14,0,0,0-5.05,1.46,28.29,28.29,0,0,0-3.82,2.38c1-1.58,1.9-2.92,2.6-4.37a29.49,29.49,0,0,0,1.52-4.15,1.58,1.58,0,0,0-1.44-2.21A32.7,32.7,0,0,0,7,50.27,67.06,67.06,0,0,0,.13,51.67c1.24-.93,2.31-1.62,3.26-2.46a79.73,79.73,0,0,0,6.15-5.7C11.32,41.55,11,40.12,9,38.41c-1.82-1.52-4-1.92-6.39-2.13,1.53-.51,3-.9,4.38-1.49,3.76-1.61,4.25-3.44,1.85-6.76-2.14-3-5.15-4.89-8.23-6.73A1.33,1.33,0,0,1,0,20.77c2,.38,3.91.89,5.89,1.1a30.94,30.94,0,0,0,6.32.15c2.34-.24,3.23-1.71,2.35-3.88A64.35,64.35,0,0,0,11.36,12c-.19-.35-.43-.67-.72-1.13,2.21,1.25,4.24,2.45,6.32,3.54a11.42,11.42,0,0,0,2.53.79c1.12.28,1.75-.3,2.09-1.32a17.73,17.73,0,0,0,.48-7.57c-.22-2.06-.59-4.1-.72-6.26.21.36.41.74.65,1.09,1.76,2.5,3.35,5.13,5.33,7.44,2.73,3.18,5.12,2.76,6.81-1.07,1-2.18,1.59-4.51,2.37-6.79.32,1.39.6,2.84,1,4.25a24.6,24.6,0,0,0,1.36,3.82c1,2.06,2.33,2.44,4.38,1.38a14.46,14.46,0,0,0,5-4.79c1.11-1.58,2.13-3.23,3.25-5-.48,2.79-1,5.45-1.37,8.13A24.58,24.58,0,0,0,50,12.94a2,2,0,0,0,2.42,2.17,17.58,17.58,0,0,0,4.69-1.39,33.9,33.9,0,0,0,4-2.48c-1,1.75-2,3.39-2.82,5.13a14.8,14.8,0,0,0-.94,3.27,1.73,1.73,0,0,0,1.34,2.15,11.43,11.43,0,0,0,4,.59c3.06-.35,6.09-1,9.14-1.52l1-.19c-1.73,1.24-3.22,2.18-4.56,3.29a50.08,50.08,0,0,0-5.34,4.9c-1.69,1.89-1.31,4.1.91,5.36a22.66,22.66,0,0,0,4.63,1.59A8.66,8.66,0,0,1,70,36.2c-1.25.44-2.5.84-3.73,1.33a24.24,24.24,0,0,0-2.88,1.33C61.24,40,61,41,62.15,43.21a15.15,15.15,0,0,0,4.95,5.06C68.76,49.43,70.53,50.44,72.36,51.59Zm-36.21-35c-10.44-.32-20,8.72-20.37,19.14A20.28,20.28,0,1,0,36.15,16.55Z"/></g></g></svg>