<svg xmlns="http://www.w3.org/2000/svg" viewBox="0 0 23.76 30"><defs><style>.cls-1{fill:#010101;}</style></defs><title>Ресурс 9</title><g id="Шар_2" data-name="Шар 2"><g id="Layer_1" data-name="Layer 1"><path class="cls-1" d="M6.46,8.86,8.83,7.67A2.56,2.56,0,0,0,10,3.95L8.5,1C7.51-1,5,.64,5,.64A9.18,9.18,0,0,0,0,7.21c-.64,13.35,12.84,22,12.84,22a9.48,9.48,0,0,0,9.15-1c2.41-1.41,1.64-3.38,1.64-3.38L20.33,21.5c-1.38-1.9-4.57.76-4.57.76a3.33,3.33,0,0,1-3.15.52C10,21.71,5.26,11.38,5.26,11.38,4.81,9.87,6.46,8.86,6.46,8.86Z"/></g></g></svg>