<svg xmlns="http://www.w3.org/2000/svg" viewBox="0 0 69.28 69.58"><defs><style>.cls-1{fill-rule:evenodd;}</style></defs><title>Ресурс 5</title><g id="Шар_2" data-name="Шар 2"><g id="Layer_1" data-name="Layer 1"><path class="cls-1" d="M69.18,52.08c-.32-.81-1-.92-2.37-.42a11.41,11.41,0,0,1-7.57.34,1,1,0,0,1-.81-.91,7,7,0,0,0-11.11-4.53,1.15,1.15,0,0,1-1.66,0q-10.15-7-20.31-14l-3.86-2.68c.81-1.17,1.55-2.24,2.29-3.32.59-.87.54-1.62-.12-2.06s-1.34-.25-2,.63c-.77,1.09-1.53,2.19-2.32,3.32l-1.08-.8c.81-1.15,1.57-2.21,2.31-3.28.57-.82.54-1.54-.07-2s-1.39-.3-2,.52C17.76,24,17,25.1,16.18,26.24l-1.1-.75c.83-1.18,1.63-2.28,2.39-3.41.57-.84.37-1.77-.43-2a1.37,1.37,0,0,0-1.69.62c-.77,1.12-1.56,2.22-2.39,3.4l-1.08-.79c.81-1.18,1.6-2.29,2.34-3.43.58-.88.36-1.7-.49-2a1.25,1.25,0,0,0-1.59.58L9.76,21.86l-1.06-.8c.77-1.1,1.5-2.13,2.22-3.18s.59-1.58-.07-2.05-1.39-.26-2,.58c-.76,1.06-1.5,2.13-2.28,3.24l-1.1-.76c.8-1.14,1.56-2.19,2.29-3.27.56-.83.5-1.56-.12-2s-1.33-.31-2,.57L3.35,17.44l-1.05-.8c.81-1.15,1.59-2.23,2.34-3.33a1.26,1.26,0,0,0-.21-1.9,1.24,1.24,0,0,0-1.86.43c-.7,1-1.4,2-2.09,3s-.67,1.35.25,2.15l9.6,8.36c6.33,5.51,12.65,11,19,16.48a4.8,4.8,0,0,0,2.48.9c1.32.15,2.67,0,4,.07a1.75,1.75,0,0,1,.92.18c2.79,2,5.56,4,8.21,5.9a21.19,21.19,0,0,0-.61,3.07,6.91,6.91,0,0,0,5.05,6.87,7,7,0,0,0,8.15-3.46c.38-.77.71-.85,1.47-.64a14,14,0,0,0,8.64-.59C69,53.6,69.51,52.92,69.18,52.08ZM31.07,41.25a1.4,1.4,0,1,1,0-2.8,1.41,1.41,0,0,1,1.37,1.47A1.39,1.39,0,0,1,31.07,41.25ZM51.46,56.88a4.84,4.84,0,0,1-5-4.82,4.89,4.89,0,0,1,5-4.87,4.84,4.84,0,1,1,0,9.69Z"/><path class="cls-1" d="M33.44,55.66A1,1,0,0,1,32.8,55c-.14-1.1-.16-2.21-.24-3.32-.15-2-.3-4-.46-6.09h-2c.16,3.41.32,6.79.48,10.24-.37.13-.69.22-1,.33a7,7,0,0,0-4.36,7.7,7.08,7.08,0,0,0,14-.77A7,7,0,0,0,33.44,55.66ZM32.17,67.35a4.87,4.87,0,1,1,.16-9.73,4.87,4.87,0,0,1-.16,9.73Z"/><path class="cls-1" d="M28.76,19.11q.31,6.11.66,12.22a1.13,1.13,0,0,0,.26.78c1.55,1.11,3.14,2.17,4.83,3.33a6.24,6.24,0,0,0,0-.83c-.47-2.86-.95-5.72-1.42-8.58L29.83,6.35c-.32-1.93-.63-3.86-1-5.78,0-.21-.34-.38-.53-.56a4.39,4.39,0,0,0-.45.63,1.11,1.11,0,0,0,0,.48Q28.31,10.11,28.76,19.11Z"/></g></g></svg>