<svg xmlns="http://www.w3.org/2000/svg" viewBox="0 0 60.54 58.83"><defs><style>.cls-1{fill-rule:evenodd;}</style></defs><title>Ресурс 6</title><g id="Шар_2" data-name="Шар 2"><g id="Layer_1" data-name="Layer 1"><path class="cls-1" d="M49.12,52.87a2.38,2.38,0,0,1-2.06-.94Q42.85,47,38.56,42.11a1.6,1.6,0,0,0-1.08-.5c-2.77,0-5.54.11-8.31.2l-21.95.73L0,42.76V52.82H1.24q18,0,36,0a2.75,2.75,0,0,1,1.56.57c1.52,1.19,2.95,2.5,4.47,3.69a2.79,2.79,0,0,0,1.56.6c4.93,0,9.85,0,14.78,0,.3,0,.6,0,.92,0V52.84C56.66,52.84,52.89,52.81,49.12,52.87Z"/><path class="cls-1" d="M25.85,28.27c.75.69,1.41,1.25,2,1.86A10.48,10.48,0,0,0,32.35,33c1.87.57,3.68,1.32,5.52,2l.88.29.89-3.3c-2.37-1.15-4.71-2.28-7-3.45a3.67,3.67,0,0,1-1.14-.9c-1.42-1.7-2.78-3.44-4.2-5.14a2.29,2.29,0,0,0-1-.69c-2.79-.84-5.6-1.62-8.39-2.47a1,1,0,0,0-1.29.46Q10.72,27.7,4.86,35.56c-1,1.41-2.08,2.83-3.18,4.34H24Z"/><path class="cls-1" d="M21.29,11.33a7.95,7.95,0,0,0,15.89-.14,7.95,7.95,0,1,0-15.89.14Z"/><path class="cls-1" d="M47.57,47a8,8,0,0,0,8-7.95A8,8,0,0,0,39.64,39,8,8,0,0,0,47.57,47Z"/><path class="cls-1" d="M35.31,55.77q-17.15,0-34.29,0c-.33,0-.66,0-1,.05v3H41c-1.51-1-2.76-1.82-4.06-2.59A3.44,3.44,0,0,0,35.31,55.77Z"/><path class="cls-1" d="M20.71,8.41a8.16,8.16,0,0,1,7.09-6A4.57,4.57,0,0,0,23,0a4.77,4.77,0,0,0-3.95,3.39A4.64,4.64,0,0,0,20.71,8.41Z"/></g></g></svg>