<svg xmlns="http://www.w3.org/2000/svg" viewBox="0 0 31.27 18.03"><defs><style>.cls-1{fill:#999;fill-rule:evenodd;}</style></defs><title>Ресурс 1</title><g id="Шар_2" data-name="Шар 2"><g id="Layer_1" data-name="Layer 1"><path class="cls-1" d="M26.81,11.36a28,28,0,0,1,4,4.32,1.81,1.81,0,0,1,.34,1.48.83.83,0,0,1-.87.64l-5,.23a3.84,3.84,0,0,1-2.58-1.29,10.66,10.66,0,0,1-2-2.27,1.31,1.31,0,0,0-1.1-.61.89.89,0,0,0-1,.76l-.15,2a1.32,1.32,0,0,1-.45.91,1.47,1.47,0,0,1-.64.34l-.87.11A16.23,16.23,0,0,1,13,17.76a6.8,6.8,0,0,1-2.69-1.1,16.07,16.07,0,0,1-1.93-1.52q-.72-.68-2.08-2.2A64.75,64.75,0,0,1,.76,3.79,7.92,7.92,0,0,1,0,1.21,1.86,1.86,0,0,1,1.14.83a23,23,0,0,1,2.42,0l1.89,0q.76-.08,1.21.83a32.83,32.83,0,0,0,3.71,6.59Q11.59,9.39,12,7.88a17.09,17.09,0,0,0,.15-3.71,2.64,2.64,0,0,0-1.89-3Q10.68,0,13.41,0q.68,0,1.67.08l1.06.08Q18.41.15,18.41,2c0,.15,0,.52-.08,1.1s-.09,1.14-.11,1.67,0,1.09,0,1.67a4.23,4.23,0,0,0,.23,1.48,1.2,1.2,0,0,0,.61.76l.79-.57a3.45,3.45,0,0,0,.79-.87c.28-.4.49-.71.64-.91a10.94,10.94,0,0,0,.68-1.14,9.32,9.32,0,0,0,.53-1.06q.08-.23.53-1.17L23.44,2l.11-.23A2,2,0,0,1,24,.95,2.35,2.35,0,0,1,25,.83h4.7a6.66,6.66,0,0,1,1,0,1.26,1.26,0,0,1,.45.34q.53.68-.95,3A30.81,30.81,0,0,1,27.34,8Q25.45,10.07,26.81,11.36Z"/></g></g></svg>