<svg xmlns="http://www.w3.org/2000/svg" viewBox="0 0 42.47 31.1"><title>Ресурс 1</title><g id="Шар_2" data-name="Шар 2"><g id="Layer_1" data-name="Layer 1"><path d="M27.79,22.52a4,4,0,0,1-2.16-3.63c0-.43.58-1.69,1.06-1.15,2.22,2.45,8.61,4.67,11.48,3.35a8.93,8.93,0,0,0,2.74-1.8,5.6,5.6,0,0,0,1.33-2.5,5.14,5.14,0,0,0,0-3c-.83-2.36-3.08-2.11-5.24-1.12-.72.33-1.35.6-1.48,1s.12.93,1,.56c1.2-.51,3.41-1.34,3.93.17A2.56,2.56,0,0,1,39,17.48a3.22,3.22,0,0,1-2.23.21c-1.23-.35-1.94-3-2.62-4A12.94,12.94,0,0,0,28.85,9a16.2,16.2,0,0,0-6.7-1.72,2,2,0,0,1-.44.49,3.59,3.59,0,0,1-2.55.95,2.82,2.82,0,0,1-2-.56,1.26,1.26,0,0,1-.37-.78l-.55.06c.68.67,1.32,1.77.91,2.61-.65,1.33-3,2.34-4.28,2.36-.69,0-1.35-.2-1.27-.46s.09-.55-.36-.54c-.82,0-1.55.63-2.45.63-.42,0-.71-.55-.54-1.06.09-.29.52-.53.73-.73a1.11,1.11,0,0,1-.38,0l-.18,0c-.2.14-.53.37-.72.52-3.63,1.85-5.38,2.64-6.63,6.52-.19.21-.36.4-.52.59C-.52,19.25,0,20.26,1.73,21a7.8,7.8,0,0,0,.84-2.83A1.9,1.9,0,0,0,2.1,17c1.31-2.79,1.49-3.63,4.35-5A12.53,12.53,0,0,0,5,14a14.5,14.5,0,0,0-2.2,5.85,38.15,38.15,0,0,0-.25,4.33,28.26,28.26,0,0,0,1,6.93H8.38l0-5.21L9.95,31.1h4.9l-1.46-4.81.74.15a28.32,28.32,0,0,0,3.69.28l.12,4.39h4.76l-.16-4.67L24,26.29l.54,4.81h4.5l.09-6.31A2.18,2.18,0,0,0,27.79,22.52Zm2.26-9.37c1.09,0,1.8,2.2,1.72,2.77S30.58,17,30,17s-2.15-.93-2.07-1.51S29.07,13.15,30.05,13.15ZM5,30.71c0-.15.19-.66.23-.76.1-.25.38-.62.77-.49s.3.74.29,1.24Zm1.5,0c0-.15.19-.66.23-.76.1-.25.38-.62.77-.49s.3.74.3,1.24Zm4.81,0c0-.15.19-.66.23-.76.1-.25.38-.62.77-.49s.3.74.3,1.24Zm2.5-1.24c.3.24.3.74.3,1.24H12.85c0-.15.19-.66.23-.76C13.18,29.7,13.45,29.33,13.84,29.47Zm5.6,1.24c0-.15.19-.66.23-.76.1-.25.38-.62.77-.49s.3.74.29,1.24Zm1.5,0c0-.15.19-.66.23-.76.1-.25.38-.62.77-.49s.3.74.29,1.24Zm3.52-10.53c-1.19,2.15-3.21,3.62-4.47,3.49a4.22,4.22,0,0,1-.42-.09,2.62,2.62,0,0,1-1.65-1.47q-.52-1.16-1-2.34l-1.25-2.13c-1.17-2,.28-6.13,2.6-7.3A5.36,5.36,0,0,1,22.1,9.8a3.74,3.74,0,0,1,2.3,1.85c.07.14-.42.66-.62.38-1.14-1.73-3.46-1.22-4-1A4.68,4.68,0,0,0,17,14.27a5.69,5.69,0,0,0,.87,4.6c.28.67.15,1.46.49,2.28a2.07,2.07,0,0,0,1.51,1.23,2,2,0,0,0,.45.06c1.19.07,1.93-.54,3.53-2.74C24,19.5,24.58,20,24.47,20.18Zm1.36,10.53c0-.15.19-.66.23-.76.1-.25.38-.62.77-.49s.3.74.3,1.24Zm1.5,0c0-.15.19-.66.23-.76.1-.25.38-.62.77-.49s.3.74.3,1.24Z"/><path d="M9.52,7.42a12.62,12.62,0,0,0,2.25.92s-2.67-.49-3.7.07c-1.2.65.28,1.27,1.06,1.35s1.72-.42,1.19-.06h0c0-.05,0,0,0,0l-.11.08c-.7.46-1.84,1.84-.13,1.2.32-.12,2.75-1.31,2.6,0a1.93,1.93,0,0,1-.06.27c1.59,0,4.3-.55,3.38-3.12-1-2.73-8.12-4.38-8.57-2.7C7.22,6.13,8.85,7.09,9.52,7.42Z"/><path d="M15.24,4.8c.66.4,1.67.24.84.41s-2.14,1-.55,1c.3,0,2.55-.25,2,.83a2.12,2.12,0,0,1-.15.22l1.26.42a1.81,1.81,0,0,0,2-.35c2.64-2.46-3.9-8.73-5.1-7.1-.44.59.49,2,.9,2.59a10.83,10.83,0,0,0,1.43,1.65s-1.93-1.43-2.95-1.3C13.72,3.35,14.66,4.44,15.24,4.8Z"/></g></g></svg>